HIERARCHY
ROOT Hips
{
	OFFSET 0.00000 0.00000 0.00000
	CHANNELS 6 Xposition Yposition Zposition Zrotation Yrotation Xrotation 
	JOINT LHipJoint
	{
		OFFSET 0 0 0
		CHANNELS 3 Zrotation Yrotation Xrotation
		JOINT LeftUpLeg
		{
			OFFSET 1.62964 -1.40469 0.78906
			CHANNELS 3 Zrotation Yrotation Xrotation
			JOINT LeftLeg
			{
				OFFSET 2.29640 -6.30932 0.00000
				CHANNELS 3 Zrotation Yrotation Xrotation
				JOINT LeftFoot
				{
					OFFSET 2.29451 -6.30412 0.00000
					CHANNELS 3 Zrotation Yrotation Xrotation
					JOINT LeftToeBase
					{
						OFFSET 0.03611 -0.09921 1.56387
						CHANNELS 3 Zrotation Yrotation Xrotation
						End Site
						{
							OFFSET 0.00000 -0.00000 0.80291
						}
					}
				}
			}
		}
	}
	JOINT RHipJoint
	{
		OFFSET 0 0 0
		CHANNELS 3 Zrotation Yrotation Xrotation
		JOINT RightUpLeg
		{
			OFFSET -1.73712 -1.40469 0.78906
			CHANNELS 3 Zrotation Yrotation Xrotation
			JOINT RightLeg
			{
				OFFSET -2.28137 -6.26801 0.00000
				CHANNELS 3 Zrotation Yrotation Xrotation
				JOINT RightFoot
				{
					OFFSET -2.28681 -6.28298 0.00000
					CHANNELS 3 Zrotation Yrotation Xrotation
					JOINT RightToeBase
					{
						OFFSET -0.15927 -0.43759 1.61103
						CHANNELS 3 Zrotation Yrotation Xrotation
						End Site
						{
							OFFSET -0.00000 -0.00000 0.84630
						}
					}
				}
			}
		}
	}
	JOINT LowerBack
	{
		OFFSET 0 0 0
		CHANNELS 3 Zrotation Yrotation Xrotation
		JOINT Spine
		{
			OFFSET -0.04227 2.04338 -0.00225
			CHANNELS 3 Zrotation Yrotation Xrotation
			JOINT Spine1
			{
				OFFSET -0.02148 2.04482 -0.04273
				CHANNELS 3 Zrotation Yrotation Xrotation
				JOINT Neck
				{
					OFFSET 0 0 0
					CHANNELS 3 Zrotation Yrotation Xrotation
					JOINT Neck1
					{
						OFFSET 0.09180 1.44629 0.19359
						CHANNELS 3 Zrotation Yrotation Xrotation
						JOINT Head
						{
							OFFSET 0.00887 1.40645 0.14750
							CHANNELS 3 Zrotation Yrotation Xrotation
							End Site
							{
								OFFSET -0.00669 1.50671 0.03707
							}
						}
					}
				}
				JOINT LeftShoulder
				{
					OFFSET 0 0 0
					CHANNELS 3 Zrotation Yrotation Xrotation
					JOINT LeftArm
					{
						OFFSET 2.17674 1.86763 -0.06520
						CHANNELS 3 Zrotation Yrotation Xrotation
						JOINT LeftForeArm
						{
							OFFSET 4.65776 -0.00000 0.00000
							CHANNELS 3 Zrotation Yrotation Xrotation
							JOINT LeftHand
							{
								OFFSET 3.55539 -0.00000 0.00000
								CHANNELS 3 Zrotation Yrotation Xrotation
								JOINT LeftFingerBase
								{
									OFFSET 0 0 0
									CHANNELS 3 Zrotation Yrotation Xrotation
									JOINT LeftHandIndex1
									{
										OFFSET 0.70726 -0.00000 0.00000
										CHANNELS 3 Zrotation Yrotation Xrotation
										End Site
										{
											OFFSET 0.57022 -0.00000 0.00000
										}
									}
								}
								JOINT LThumb
								{
									OFFSET 0 0 0
									CHANNELS 3 Zrotation Yrotation Xrotation
									End Site
									{
										OFFSET 0.57892 -0.00000 0.57892
									}
								}
							}
						}
					}
				}
				JOINT RightShoulder
				{
					OFFSET 0 0 0
					CHANNELS 3 Zrotation Yrotation Xrotation
					JOINT RightArm
					{
						OFFSET -2.80694 1.55459 -0.32496
						CHANNELS 3 Zrotation Yrotation Xrotation
						JOINT RightForeArm
						{
							OFFSET -4.71925 -0.00000 -0.00000
							CHANNELS 3 Zrotation Yrotation Xrotation
							JOINT RightHand
							{
								OFFSET -3.56990 -0.00000 0.00000
								CHANNELS 3 Zrotation Yrotation Xrotation
								JOINT RightFingerBase
								{
									OFFSET 0 0 0
									CHANNELS 3 Zrotation Yrotation Xrotation
									JOINT RightHandIndex1
									{
										OFFSET -0.50776 -0.00000 0.00000
										CHANNELS 3 Zrotation Yrotation Xrotation
										End Site
										{
											OFFSET -0.40937 -0.00000 0.00000
										}
									}
								}
								JOINT RThumb
								{
									OFFSET 0 0 0
									CHANNELS 3 Zrotation Yrotation Xrotation
									End Site
									{
										OFFSET -0.41562 -0.00000 0.41562
									}
								}
							}
						}
					}
				}
			}
		}
	}
}
MOTION
Frames: 5
Frame Time: .0083333
-1.0513 17.9611 20.9203 0 0 0 0 0 0 -21 0 0 0 0 0 0 0 0 0 0 0 0 0 0 21 0 0 0 0 0 0 0 0 0 0 0 0 0 0 0 0 0 0 0 0 0 0 -16 0 0 21 0 0 11 0 0 0 -8 0 0 0 0 0 0 0 0 0 0 0 0 0 0 0 0 0 0 0 0 8 0 0 0 0 0 0 0 0 0 0 0 0 0 0 0 0 0
-1.0513 17.9611 20.9203 177.7040 -1.1395 -155.4460 0.0000 0.0000 0.0000 -21.8217 -14.9900 -19.1901 0.1457 2.4602 6.7794 -0.0010 -5.9303 -4.1269 3.1180 -10.8836 -31.8883 0.0000 0.0000 0.0000 18.7942 11.6462 -19.8634 -0.1130 -2.1674 5.9684 -0.7638 2.6476 -15.8263 -2.9660 10.6398 -31.0746 -6.6103 -2.3808 -28.1315 0.1134 -1.6249 -1.2029 3.0545 -1.3935 13.7385 0.8185 -4.3726 -6.0444 2.2439 -5.8327 15.9665 0.1978 -2.3790 5.8643 -0.0000 -0.0000 0.0000 -64.8061 -5.3947 24.3245 27.3030 -38.4666 -9.6870 -0.0000 0.0000 -1.9634 23.4056 -11.8408 -5.0756 -7.1250 0.0000 -0.0000 -2.6333 17.1198 1.7433 -0.0000 -0.0000 0.0000 90.6596 -6.7309 8.8021 -16.6323 26.3704 -3.9226 0.0000 -0.0000 -0.8238 -12.9972 -57.3455 10.9974 7.1250 -0.0000 -0.0000 84.5180 -76.6975 -70.7588
-1.0546 17.9628 20.9222 177.6600 -1.2140 -155.4980 0.0000 0.0000 0.0000 -21.8918 -15.0108 -19.1543 0.1470 2.4712 6.8097 -0.0022 -6.0666 -4.1883 3.0756 -10.8164 -31.6633 0.0000 0.0000 0.0000 18.7062 11.8230 -19.8081 -0.1193 -2.2269 6.1330 -0.7696 2.4918 -15.9166 -2.9102 10.5482 -30.7708 -6.6501 -2.3600 -28.0720 0.0673 -1.5757 -1.1708 3.0466 -1.3707 13.7417 0.7069 -4.4579 -6.2566 2.4296 -5.9731 16.0744 0.2583 -2.4352 5.9455 0.0000 0.0000 0.0000 -65.2671 -5.3739 24.5963 26.8787 -38.0633 -9.4243 -0.0000 0.0000 -1.7095 23.4456 -11.8815 -5.1024 -7.1250 0.0000 -0.0000 -2.6074 17.0719 1.7288 0.0000 0.0000 0.0000 90.6850 -6.6594 9.0663 -16.7521 26.5299 -3.9760 0.0000 -0.0000 -1.1713 -14.5071 -59.1567 12.5252 7.1250 -0.0000 -0.0000 92.7229 -77.0149 -79.4783
-1.0563 17.9627 20.9229 177.6560 -1.1971 -155.5200 0.0000 0.0000 0.0000 -21.9277 -14.9601 -19.1282 0.1451 2.4551 6.7651 0.0024 -5.9745 -4.2515 3.2470 -11.0845 -32.5655 0.0000 0.0000 0.0000 18.6815 11.9673 -19.7584 -0.1220 -2.2520 6.2027 -0.7770 2.4280 -16.0083 -2.8543 10.4554 -30.4643 -6.6830 -2.3095 -28.0559 0.0214 -1.4958 -1.1776 3.0455 -1.3354 13.7166 0.9051 -4.5832 -6.2702 2.2672 -6.1458 16.0528 0.1632 -2.5210 5.9312 -0.0000 0.0000 0.0000 -65.7275 -5.2903 24.8646 26.4420 -37.6419 -9.1563 -0.0000 0.0000 -1.4431 23.4833 -11.9227 -5.1290 -7.1250 0.0000 -0.0000 -2.5831 17.0237 1.7154 -0.0000 0.0000 0.0000 90.8190 -6.7395 8.8543 -16.7716 26.5557 -3.9847 0.0000 -0.0000 -1.0158 -14.4530 -58.1444 12.3485 7.1250 -0.0000 -0.0000 88.2958 -77.1502 -75.0726
-1.0579 17.9620 20.9253 177.6450 -1.1997 -155.4740 0.0000 0.0000 0.0000 -21.9315 -14.9579 -19.2151 0.1474 2.4739 6.8174 -0.0031 -6.0865 -4.1779 3.2493 -11.0881 -32.5775 0.0000 0.0000 0.0000 18.6211 12.1496 -19.7277 -0.1195 -2.2284 6.1374 -0.7748 2.2549 -16.0182 -2.7958 10.3570 -30.1406 -6.7505 -2.2691 -28.0936 -0.0122 -1.4228 -1.2131 3.0720 -1.3073 13.6847 1.0737 -4.6955 -6.1874 2.1800 -6.2945 16.1255 0.1001 -2.5837 5.9327 0.0000 -0.0000 0.0000 -66.2665 -5.2745 25.2064 25.9924 -37.2012 -8.8831 -0.0000 0.0000 -1.1842 23.5180 -11.9612 -5.1537 -7.1250 0.0000 -0.0000 -2.5608 16.9785 1.7031 0.0000 -0.0000 0.0000 90.9833 -6.9109 8.6341 -16.8604 26.6734 -4.0245 0.0000 -0.0000 -0.8512 -14.5359 -57.3121 12.3102 7.1250 -0.0000 -0.0000 84.6251 -77.2454 -71.4685
